<?xml version="1.0" encoding="utf-8"?>
<!-- Generator: Adobe Illustrator 24.2.3, SVG Export Plug-In . SVG Version: 6.00 Build 0)  -->
<svg version="1.1" id="Layer_1" xmlns="http://www.w3.org/2000/svg" xmlns:xlink="http://www.w3.org/1999/xlink" x="0px" y="0px"
	 viewBox="0 0 1924 974.6" style="enable-background:new 0 0 1924 974.6;" xml:space="preserve">
<style type="text/css">
	.st0{fill:#A9E1F7;}
	.st1{fill:#DAF0F8;}
	.st2{fill:#CFEDF7;}
	.st3{fill:#D2E4EA;}
	.st4{fill:#CFE3EA;}
	.st5{fill:#D7EFF8;}
	.st6{fill:#D7E1E7;}
	.st7{fill:#70CCF0;}
	.st8{fill:#00B9F2;}
	.st9{fill:#BFD9F2;}
	.st10{opacity:0.373;fill:#FFFFFF;enable-background:new    ;}
</style>
<g id="Group_5696_1_" transform="translate(-340.515 665.761)">
	<g id="Group_5615_2_" transform="translate(0 89.04)">
		<rect id="Rectangle_4505_2_" x="-48.3" y="151.9" class="st0" width="83.7" height="97.2"/>
		<rect id="Rectangle_4506_2_" x="95" y="119.2" class="st0" width="83.7" height="130"/>
		<rect id="Rectangle_4507_2_" x="167.5" y="122.6" class="st0" width="63" height="126.6"/>
		<rect id="Rectangle_4508_2_" x="554.3" y="177.4" class="st0" width="63" height="71.8"/>
		<rect id="Rectangle_4509_2_" x="662.8" y="127.4" class="st0" width="42.4" height="121.8"/>
		<rect id="Rectangle_4510_2_" x="1175.1" y="85.8" class="st0" width="42.4" height="163.3"/>
		<rect id="Rectangle_4511_2_" x="1261.5" y="85.8" class="st0" width="85.4" height="163.3"/>
		<rect id="Rectangle_4512_2_" x="1771.6" y="59.1" class="st0" width="47.4" height="189.6"/>
		<rect id="Rectangle_4513_2_" x="1840.8" y="40.9" class="st0" width="47.4" height="208.2"/>
		<rect id="Rectangle_4514_2_" x="1997.1" y="93.6" class="st0" width="96.7" height="155.1"/>
		<rect id="Rectangle_4515_2_" x="2331.2" y="184.7" class="st0" width="34.6" height="64"/>
		<rect id="Rectangle_4516_2_" x="221" y="165.8" class="st0" width="280.6" height="83.3"/>
		<g id="XMLID_5_">
			<g>
				<polygon class="st1" points="1549.4,-0.9 1549.4,248.7 1462.2,248.7 1462.2,-1 1473.4,-1 1473.4,-10.1 1482.8,-10.1 1482.8,-1 
					1488,-1 1488,-15.7 1523.5,-15.7 1523.5,-1 1529.1,-1 1529.1,-10.1 1538.2,-10.1 1538.2,-1 1538.2,-0.9 				"/>
			</g>
			<g>
			</g>
		</g>
		<path id="Path_30657_2_" class="st0" d="M2062.6,85.4v-7.3h-3.4v-7.8h-6.5v-2.5h-4.4v-9h3.4v-5.7h-3.4v-4.8h-5.6v4.8h-3v5.7h3v9
			h-4v2.5h-6.9v7.8h-3v7.3h-4.4v163.3h41.9V85.4H2062.6z"/>
		<g id="XMLID_4_">
			<g>
				<polygon class="st2" points="1790.4,28.8 1790.4,248.6 1717.9,248.6 1717.9,28.8 1720.8,28.8 1720.8,9.3 1728.2,9.3 
					1728.2,-11.9 1735.5,-11.9 1735.5,-36.9 1773.1,-36.9 1773.1,-11.9 1780.4,-11.9 1780.4,9.3 1787.3,9.3 1787.3,28.8 				"/>
			</g>
			<g>
			</g>
		</g>
		<g id="XMLID_7_">
			<g>
				<polygon class="st3" points="1940.9,248.7 1940.9,248.8 1879.5,248.8 1879.5,11.3 1900.7,11.3 1900.7,4.3 1902,4.3 1902,11.3 
					1905.9,11.3 1905.9,4.3 1907.2,4.3 1907.2,11.3 1911.1,11.3 1911.1,4.3 1912.4,4.3 1912.4,11.3 1918,11.3 1918,19.9 1934,19.9 
					1934,37.5 1940.9,37.5 				"/>
			</g>
			<g>
			</g>
		</g>
		<path id="Path_30660_2_" class="st0" d="M2338,120v-4.4H2320v-10.3h-33.7v10.3h-5.6v4.4h-3.5v128.7h70.3V120H2338z"/>
		<path id="Path_30661_2_" class="st0" d="M1444,55.2v-1.7h-1.7v-1.7h-6.1v1.7h-4.4v1.7h-21.5v193.5h47V55.2H1444z"/>
		<path id="Path_30662_2_" class="st0" d="M2117.1,89.8v-5.6h7.3V72h-7.3V59.8h-34.2V72h-6.9v12.1h6.9v5.6h-7.3v158.9h66.1V89.8
			H2117.1z"/>
		<path id="Path_30663_2_" class="st0" d="M2016.4,248.7V32.3h-7.3v-8.2h-10.3V7.7h-22V-4h-5.6V7.7h-3v16.4h-11.7v224.6
			L2016.4,248.7z"/>
		<path id="Path_30665_2_" class="st0" d="M1662.9,10.7V5.5h-13.4v-5.7h-28.9v10.7h-9.9v238h93.3v-238h-41.1L1662.9,10.7z"/>
		<path id="Path_30667_2_" class="st0" d="M457.6,59.6v-6.1h-10.7V56h-18.1v3.4h-6.5v189.1h38.8V59.4h-3.5L457.6,59.6z"/>
		<g id="XMLID_6_">
			<g>
				<polygon class="st4" points="407.1,39.9 413.2,39.9 413.2,248.6 374.3,248.6 374.3,39.9 382.1,39.9 382.1,36.5 391.6,36.5 
					391.6,34 407.1,34 				"/>
			</g>
			<g>
			</g>
		</g>
		<g>
			<path id="Path_30670_2_" class="st0" d="M1846.9-0.1v-6.1h-4v-39.7h-2.1v39.7h-7.3v-27.7h-2.1v27.7h-9v-41.5h-2.5v41.5h-12.1v6.1
				h-6.9v248.8h53.1V-0.1H1846.9z"/>
		</g>
		<path id="Path_30676_2_" class="st0" d="M644.1,156.3v-4h-9v4h-3.4v-9.9h-34.6v9.9h-9.9v92.4h60.8v-92.4H644.1z"/>
		<path id="Path_30681_2_" class="st0" d="M898.8,129.5v-7.3h-27.7v-3h-8.6v-3.4h-20.8v6.5H837v7.3h-22v119.2h86.8V129.6h-3V129.5z"
			/>
		<path id="Path_30682_2_" class="st0" d="M1058.2,115.2v-1.7h-11.7v1.7h-24.6v-3h-16v3h-5.6v133.5h64V115.2H1058.2z"/>
		<g id="XMLID_2_">
			<g>
				<polygon class="st5" points="1184.5,248.7 1070.6,248.7 1070.6,12 1075.4,12 1075.4,2.1 1091.8,2.1 1091.8,12 1184.5,12 				"/>
			</g>
			<g>
			</g>
		</g>
		<g id="Group_5692_1_" transform="translate(30.634)">
			<g id="XMLID_3_">
				<g>
					<path class="st6" d="M2293.7,248.7h-276.8v-50.1l24.1-32.3h68.2v-9.1h-2.5v-1.3h-0.9v-2.1h1.7v-3.9h2.5v-35.5
						c0-1.6,0.3-2.9,0.9-3.8c0.5-0.9,1.3-1.5,2.1-1.5v-0.4c0-7.8,4.7-14.3,10.7-16v-2.3c0,0,0,0,0-0.1c0-1.6,1.4-2.8,3-2.8h0.6
						c0,0,0,0,0.1,0c1.6,0.1,2.8,1.4,2.8,3v2.1c5.9,1.7,10.7,8.2,10.7,16v0.4c1.7,0,3,2.3,3,5.2v2.5l27.3-27.3v-3.9h2.1v3h14.8v-3h3
						v3.9l27.3,27.3v-2.5c0-1.6,0.3-2.9,0.8-3.8c0.5-0.9,1.3-1.5,2.1-1.5v-0.4c0-7.8,4.7-14.3,10.7-16v-2.3c0,0,0,0,0-0.1
						c0.1-1.6,1.4-2.8,3-2.8h0.6c0,0,0,0,0.1,0c1.6,0.1,2.8,1.4,2.8,3v2.1c5.9,1.7,10.7,8.2,10.7,16v0.4c1.7,0,3,2.3,3,5.2v35.5h2.5
						v3.9h0.8v2.1h-0.8v1.3h-2.5v9.1h8.6l33.2,17.6V248.7z"/>
					<polygon class="st6" points="1975.9,84.1 1975.9,248.6 1886.4,248.6 1886.4,101.2 1893.8,101.2 1893.8,87.4 1895,87.4 
						1895,84.4 1909.7,84.4 1909.7,76.7 1910.6,76.7 1910.6,74.1 1927.4,74.1 1927.4,70.7 1926.9,70.7 1927.4,70.3 1927.4,66.3 
						1934.3,66.3 1941.2,62.4 1948.5,66.3 1957.1,66.3 1959.7,65.1 1962.2,66.3 1969.1,66.3 1969.1,70.3 1971.7,71.6 1973,71.6 
						1973,84.1 					"/>
					<polygon class="st6" points="1814.1,248.7 1814.1,94 1860.3,94 1860.3,85.4 1868.9,85.4 1868.9,78.9 1876.3,78.9 1876.3,94 
						1881.1,94 1881.1,248.7 					"/>
					<polygon class="st6" points="1738.9,91.1 1738.9,248.7 1738.9,248.8 1606.2,248.8 1606.2,47.6 1616.1,44.6 1616.1,46.3 
						1617.4,45.9 1617.4,42.9 1626.8,39.5 1626.8,41.6 1628.1,41.2 1628.1,37.8 1637.5,34.4 1669.4,34.4 1669.4,37.8 1687.5,41.8 
						1687.5,74.5 1697.4,76.2 1697.4,79.2 1699.9,79.6 1699.9,79.2 1711.2,80.9 1711.2,84.3 1713.8,84.7 1713.8,83.9 1725.1,86 
						1725.1,89.4 1727.6,89.8 1727.6,88.9 					"/>
					<path class="st6" d="M1567.1-41.2h2.1v-5.6L1567.1-41.2z M1579.2-40.7l-6.9-7.8v7.8H1579.2z M1572.7-50.6l8.6,9.9l9.2,0v289.9
						h-79.1V-40.7h54.3l4-9.5v-44.9h3V-50.6z"/>
					<polygon class="st6" points="1487.1,83.3 1487.1,248.7 1414.5,248.7 1414.5,83.3 1425.2,83.3 1425.2,68.2 1439.5,68.2 
						1439.5,56 1458,56 1458,53.5 1467.4,53.5 1467.4,56 1474.8,56 1474.8,68.2 1483,68.2 1483,83.3 					"/>
					<polygon class="st6" points="1389.2,248.7 1306.4,248.7 1306.4,79.3 1311.2,79.3 1311.2,62.5 1329.2,62.5 1329.2,44 1353.8,44 
						1353.8,40.1 1364.5,40.1 1364.5,44 1375.8,44 1375.8,62.5 1381.9,62.5 1381.9,79.3 1389.2,79.3 					"/>
					<polygon class="st6" points="1267,132 1267,248.7 1170.7,248.7 1170.7,132 1171.5,132 1171.5,114.8 1178.9,114.8 1178.9,103.1 
						1198.4,103.1 1198.4,92.8 1240.3,92.8 1240.3,103.1 1245.1,103.1 1245.1,114.8 1260.2,114.8 1260.2,132 					"/>
					<path class="st6" d="M921.9-341.8v-12.6c0-0.5,0.4-0.8,0.8-0.9c0.5,0,0.8,0.4,0.9,0.9v12.6c0.5,0.4,0.9,1,0.8,1.7v19.5
						c0.6,0.6,0.9,1.3,0.9,2.1v28.1c0,0.4-0.4,0.8-0.4,1.3c1,0.4,1.7,1.4,1.7,2.5v21.6c0.8,1.2,1.3,2.5,1.3,4v47.9l3.4,8.6
						c1.1,0.1,2,1,2.1,2.1c0.3,1.4-0.7,2.8-2.1,3.1c-0.4,1.7-0.9,3-1.7,3v80.4h2.5v3h2.1v9h-1.7v9.9h12.6v9.5l5.6,9.5h2.1l0.3,4.7
						h-0.8v8.6h-3.4l-3,6.5h2.1c0.1,0,0.1,0,0.2,0c2.8,0.1,5.1,2.4,5,5.2c0,0,0,0,0,0c0,2.9-2.3,5.2-5.2,5.2h-13.4l10.7,311.8h-39.3
						l5.7-311.8h-13.4c-0.1,0-0.1,0-0.2,0c-2.8,0-5.1-2.4-5-5.2c0,0,0,0,0,0c0-2.9,2.3-5.2,5.2-5.2h2.1l-4-6.5h-3.4v-9h-0.8v-4.4
						h2.5l5.6-9.5v-9.5h12.6v-9.9h-1.7v-9h2.1v-3h2.5v-80.4c-1.1-0.5-1.8-1.7-1.7-3c-1.3-0.1-2.2-1.3-2.1-2.5c0-1.3,0.9-2.3,2.1-2.5
						l3.4-8.6v-47.9c-0.2-1.4,0.3-2.9,1.3-4v-21.6c0-1.1,0.6-2.2,1.7-2.5c-0.3-0.4-0.4-0.8-0.4-1.3v-28.1c0-0.8,0.3-1.5,0.9-2.1
						V-340C921.1-340.7,921.4-341.4,921.9-341.8z"/>
					<path class="st6" d="M849.4,248.7H575.2v-39.3h0.8c7.3-24.2,65.7-63,136.4-63c70.7,0,129,38.8,136.4,63h0.6V248.7z"/>
					<path class="st6" d="M538.4,103.1v146.1H465V108.7h0.9v-1.3h8.2v1.3c22.4-0.4,41.5-2.7,48.8-5.7v-1.7h6.1v-1.3h8.6v2.5v0.4
						H538.4z"/>
					<path class="st6" d="M458.5,248.6h-33.2V132.3h1.3V131h-0.8c0.4,0,0.4-0.4,0.8-0.8c1.1-0.8,2.2-1.5,3.4-2.1
						c3.6-1.6,7.4-2.6,11.3-3h8.2c2.1,0.4,4.4,0.4,6.1,1.3c1,0.2,1.9,0.8,2.5,1.7c0,0,0.1,0,0.1,0c0.2,0,0.4,0.2,0.3,0.4h-1.7v3.8h0
						l0,0.1v-0.1h1.7V248.6z"/>
					<polygon class="st7" points="456.8,132.3 456.8,132.4 456.8,132.3 					"/>
					<polygon class="st6" points="19.3,29.5 18.4,29.5 18.4,26.9 19.7,26.9 19.7,22.6 21,22.6 21,26.9 21.8,26.9 21.8,29.5 
						21.4,29.5 33.1,53.2 34.4,53.2 34.4,50.2 39.2,50.2 39.2,53.2 41.7,53.2 41.7,61.8 40,61.8 40,75.2 42.6,75.2 42.6,70.4 
						43.4,70.4 43.4,50.9 42.6,50.9 42.6,47.6 43.4,47.6 43.4,44.6 42.2,44.6 42.2,39.4 43.4,39.4 43.4,38.1 45.1,38.1 45.1,37.2 
						46.8,37.2 46.8,36 50.2,36 50.2,37.2 51.5,37.2 51.5,38.1 53.6,38.1 53.6,39.4 54.5,39.4 54.5,44.6 53.2,44.6 53.2,47.6 
						54.5,47.6 54.5,50.9 53.2,50.9 53.2,70.4 54.5,70.4 54.5,78.2 53.2,78.2 53.2,78.6 60.1,78.6 60.1,104.5 54.5,104.5 
						50.1,111.8 50.1,133.9 100.6,133.9 110.1,149.8 115.7,143.3 115.7,114.8 117.8,114.8 117.8,109.6 116.6,109.6 116.6,104.3 
						120.5,104.3 120.5,100 123.9,100 123.9,104.3 124.3,104.3 124.3,103.1 125.6,103.1 125.6,104.3 130,104.3 130,109.6 
						128.7,109.6 128.7,114.8 130.8,114.8 130.8,143.3 139.4,152.8 145.1,143.7 152.9,157.2 153.7,157.2 153.7,158.9 152.4,158.9 
						152.4,166.6 155,166.6 155,173.6 176.6,173.6 182.6,183.9 182.6,176.9 183.1,176.9 183.1,174 184.3,174 184.3,176.9 186,176.9 
						186,183.9 193.4,168.8 192.5,168.8 192.5,167.1 206.8,167.1 206.8,168.8 205.9,168.8 211.6,180.1 211.6,179.6 215.5,179.6 
						215.5,182.2 214.7,182.2 214.7,184.7 216.8,184.7 216.8,188.7 218.1,188.7 218.1,225 223.7,225 223.7,248.7 -48.3,248.7 
						-48.3,204.2 -47.5,204.2 -47,204.2 -47,189.7 -48.3,189.7 -48.3,182.7 -47.9,182.7 -45.8,172.4 -43.7,181.9 -42,172.4 
						-39.8,181.9 -37.7,172.4 -35.6,181.9 -33.9,172.4 -31.8,182.7 -31,182.7 -31,189.7 -32.6,189.7 -32.6,204.3 -31.4,204.3 
						-31.4,202.2 -27.4,202.2 -27.4,204.3 -25.3,204.3 -25.3,202.2 -20.9,202.2 -20.9,204.3 -18.8,204.3 -18.8,202.2 -14.4,202.2 
						-14.4,204.3 -12.3,204.3 -12.3,202.2 -8.4,202.2 -8.4,204.3 -7.5,204.3 -7.5,139.1 -10.1,139.1 -10.1,111.8 -14.4,104.5 
						-20.1,104.5 -20.1,78.6 -12.7,78.6 -12.7,75.2 0.2,75.2 0.2,61.8 -1.5,61.8 -1.5,53.2 1.1,53.2 1.1,50.2 5.9,50.2 5.9,53.2 
						7.2,53.2 					"/>
				</g>
				<g>
				</g>
			</g>
		</g>
		<g id="Group_5693_1_">
			<g id="XMLID_1_">
				<g>
					<path class="st5" d="M2310.9,220.2l-15.5,27.7h-132.2c2.3-2.7,3-7,1.7-10.9c-1.7-6.5-7.8-12.6-14.7-12.6h-0.9
						c-4.4-1.7-8.6-1.3-13-0.4c-1.7,0.3-3.2,1.4-4,3c-0.9-1.5-2.3-2.5-3.9-3c-2.5-0.4-5.2-0.8-7.8,0c-0.4,0-0.9,0.4-1.3,0.4
						c-1.6-2.7-4.3-4.6-7.4-5.2h-1.3c-2.8-1.5-5.9-2.1-8.9-1.5v-28.4h6.1v-4h12.6l8.6-4.8l8.6,4.4l-0.4-1.3l16.8-30.2l53.1,3
						l5.6,18.1l39.3-7.3L2310.9,220.2z"/>
					<path class="st8" d="M2163.3,247.9h132.2l-0.5,0.8l-132.7,0.1l0.1-0.1C2162.7,248.4,2163,248.2,2163.3,247.9z"/>
					<path class="st5" d="M2164.9,237c1.3,3.9,0.6,8.2-1.7,10.9H2102v-30.2c3-0.6,6.1,0,8.9,1.5h1.3c3.1,0.6,5.7,2.5,7.4,5.2
						c0.4,0,0.8-0.4,1.3-0.4c2.5-0.8,5.2-0.4,7.8,0c1.7,0.4,3.1,1.5,3.9,3c0.8-1.6,2.2-2.7,4-3c4.4-0.8,8.6-1.3,13,0.4h0.9
						C2157.2,224.4,2163.3,230.5,2164.9,237z"/>
					<path class="st8" d="M2102,247.9h61.3c-0.3,0.3-0.6,0.6-0.9,0.8l-0.1,0.1l-60.3,0V247.9z"/>
					<path class="st5" d="M2102,217.7v30.2h-39.5v-24.7c1.1-0.1,2.2-0.1,3.2,0c0.4-3.5,3.5-5.2,6.5-5.7c3.4,0,7.3,1.8,9,4.8
						c1,1.7,1.6,3.7,1.7,5.7c1.4,0.4,2.7,1,3.9,1.7c1.3,0.4,1.7,1.3,2.6,2.1c0.1-1.4,0.4-2.7,0.8-3.9c0.4-0.9,1-1.8,1.7-2.5
						c0.8-1.1,2-1.9,3.4-2.1c0.4-1.7,1.5-3.1,3-3.9C2099.5,218.4,2100.7,217.9,2102,217.7z"/>
					<path class="st5" d="M2062.5,223.2v24.7h-17.2c-1.7-3.3-1.5-7.3,0.6-10.5c1.4-2,3.3-3.6,5.6-4.4c0.3-3.5,2.5-6.6,5.6-8.2
						C2058.8,223.9,2060.6,223.4,2062.5,223.2z"/>
					<path class="st5" d="M2062.5,219.3v3.8c-1.9,0.2-3.7,0.8-5.4,1.7c-3.2,1.6-5.3,4.7-5.6,8.2c-2.3,0.8-4.3,2.3-5.6,4.4
						c-2.1,3.1-2.3,7.1-0.6,10.5h-256.5v-28.5h13.4c23.7-31.9,22.9-52.3,25.4-54.4c4.7-3.5,10.3-4.4,16.4-5.7
						c0.4-11.3,162.4-11.3,163.2,0c5.6,0.9,11.2,1.7,16.4,5.7c3,2.1,1.7,22.5,25.4,54.4H2062.5z"/>
					<path class="st8" d="M2045.9,248.7h16.6v-0.8h39.5v1l60.3,0l-0.3,0.3h-115.8C2046.1,249,2046,248.9,2045.9,248.7z"/>
					<path class="st8" d="M2045.2,247.9h17.2v0.8h-16.6c-0.3-0.4-0.5-0.8-0.5-0.6C2045.3,248,2045.3,248,2045.2,247.9z"/>
					<path class="st8" d="M2045.9,248.7h-257.2v-0.8h256.5c0,0.1,0.1,0.2,0.1,0.3C2045.4,247.9,2045.6,248.3,2045.9,248.7z"/>
					<polygon class="st8" points="1758,247.9 1758,248.7 1695,248.6 1695,247.9 					"/>
					<polygon class="st5" points="1758,117.8 1758,247.9 1695,247.9 1695,159.1 1703.6,159.1 1703.6,135 1710.9,135 1710.9,117.8 
											"/>
					<path class="st8" d="M1672.8,247.9v1.3h-9.4c0.2-0.4,0.3-0.8,0.4-1.3H1672.8z"/>
					<path class="st5" d="M1672.8,155.3v92.5h-8.9c0.8-3,0.2-6.2-1.1-8.8c-0.7-0.8-1.6-1.6-2.5-2.1c0.8-4.8,0-8.8-4-11.7
						c-3.3-2.1-7.5-2.1-10.7,0c-0.4,0-0.4,0-0.8,0.4c-3.4-1.3-7.8-2.1-10.7,0c-3.1,2.1-4.4,5.2-5.2,8.6c-1.4,0.4-2.7,1-4,1.7
						c-2.5-3.1-6.8-3.9-10.7-3.9c-0.8-3.8-2.5-7.3-6.9-8.6c-2.7-0.5-5.5-0.4-8.2,0.4v-68.5h18.6v-10.7h2.5c0.4-9,6.1-16.8,13.4-18.1
						v-4.8h5.6v4.8c7.3,1.7,13,9,13.4,18.1h2.5v10.7H1672.8z"/>
					<path class="st5" d="M1662.8,239.1c1.3,2.6,1.9,5.8,1.1,8.8H1599v-24c2.6-0.8,5.4-1,8.2-0.4c4.4,1.3,6.1,4.8,6.9,8.6
						c3.9,0,8.2,0.9,10.7,3.9c1.3-0.7,2.6-1.3,4-1.7c0.8-3.4,2.1-6.5,5.2-8.6c3-2.1,7.3-1.3,10.7,0c0.4-0.4,0.4-0.4,0.8-0.4
						c3.3-2.1,7.5-2.1,10.7,0c4,3,4.8,6.9,4,11.7C1661.2,237.5,1662.1,238.2,1662.8,239.1z"/>
					<path class="st8" d="M1599,247.9h64.9c-0.1,0.4-0.3,0.9-0.4,1.3H1599V247.9z"/>
					<path class="st5" d="M1599,223.9v24h-14.7v-21.6c3.7-2,7.9-2.7,11.6-1.1C1596.9,224.6,1597.9,224.2,1599,223.9z"/>
					<path class="st8" d="M1584.3,247.9v0.8h-40.7c-0.1-0.3-0.2-0.6-0.2-0.8H1584.3z"/>
					<path class="st5" d="M1584.3,226.2v21.6h-40.8c-0.1-0.3-0.1-0.6-0.1-0.9c0.1-2.8,1.2-5.6,3-7.8c1.3-7.4,9.9-12.6,17.2-10.7
						c1.3-1.3,3-2.2,4.8-2.5c2.2-0.4,4.5-0.1,6.5,0.8c1.6,0.8,2.8,2.3,3.4,4C1580,229,1582.1,227.4,1584.3,226.2z"/>
					<path class="st9" d="M1662.8,250.4h-119.1v-1.3h0.1c-0.1-0.1-0.1-0.3-0.2-0.4h40.7v-0.8h14.7v1.3h64.4
						C1663.3,249.6,1663.1,250,1662.8,250.4z"/>
					<path class="st8" d="M1543.6,248.7h-430.7v-0.8h430.5C1543.5,248.1,1543.6,248.4,1543.6,248.7z"/>
					<rect x="1296.5" y="156.3" class="st8" width="2.3" height="0.4"/>
					<path class="st8" d="M1295.5,156.3v0.4h-1.3c-0.4,0-0.4,0-0.8,0.4v-0.8H1295.5z"/>
					<path class="st5" d="M1303,156.3v0.4h1.7c0.4,0,0.8,0,0.8,0.4v-0.8h-2.1H1303z M1302.4,156.7v-0.4h-2.5v0.4H1302.4z
						 M1515.7,157.2v-0.8h-2.1h-0.4v0.4h1.7C1515.3,156.7,1515.7,156.7,1515.7,157.2z M1506.2,156.7v-0.4h-2.1h-0.4v0.8
						c0.4-0.4,0.4-0.4,0.8-0.4H1506.2z M1509.6,156.7v-0.4h-2.5v0.4H1509.6z M1510.2,154.9h2.5v-2.1c0,0,0-0.1,0-0.1
						c0-0.2,0.2-0.4,0.4-0.3c0,0,0.1,0,0.1,0c0.2,0,0.3,0.2,0.3,0.4v2.1h2.1v-4h0.9v6.9h0.4l4,13.9h2.5v-9.9h-0.4v-2.1v-1.3h4.4v1.3
						h0.4v2.1h-0.4v9.9h0.8v9.5h1.7v11.3l6.9-7.3l9.4,9.9v-2.5h1.7v1.7l1.7-3.4v-9.9h-0.4v-1.7h-0.4L1561,158v-7.3c0,0-0.1,0-0.1,0
						c-0.2,0-0.4-0.2-0.3-0.4l0.4-0.4v-1.3l0.4-0.4c0.4,0,0.4,0,0.4,0.4v1.3c0,0,0.1,0,0.1,0c0.2,0,0.3,0.2,0.3,0.4l-0.4,0.4v7.3
						l12.1,21.2h-0.4v1.7h-0.4v9.9l3,6.1h0.8v-1.7h-0.4V193h6.1v2.1h-0.8v1.7h1.7v13.4l1.7,3h-0.9v13c-2.2,1.2-4.3,2.8-6.1,4.5
						c-0.6-1.7-1.8-3.1-3.4-4c-2-0.9-4.3-1.2-6.5-0.8c-1.8,0.4-3.5,1.3-4.8,2.5c-7.3-1.8-15.9,3.4-17.2,10.7c-1.8,2.2-2.9,4.9-3,7.8
						c0,0.3,0,0.6,0.1,0.9h-430.5v-20.3l-0.5,0v-0.1h-1.3l2.5-2.5v-10.7h10.3l4.8-4.8v-8.2h-0.8v-1.3h-0.9l18.1-17.2v-6.1h-0.4
						c-0.4,0-0.4,0-0.4-0.4c0,0,0-0.1,0-0.1c0-0.2,0.2-0.3,0.4-0.3h0.4v-0.9c0-0.4,0-0.4,0.4-0.4c0.4,0,0.4,0,0.4,0.4v0.9h0.4
						c0,0,0.1,0,0.1,0c0.2,0,0.3,0.2,0.3,0.4c0,0,0,0.1,0,0.1c0,0.2-0.2,0.3-0.4,0.3h-0.4v6.1l18.1,17.2h-0.8v1.3h-0.8v8.2
						l12.6,12.6v-1.7h0.4v-1.7h0.8v-10.7h-0.8v-2.1h0.4v-0.8h0.8v-2.1h0.4v-2.1h3v2.1h0.4v2.1h0.9v0.8v2.1h-0.9v10.9h0.9v1.7h0.4v3
						h-0.8v5.7h17.2v-2.5h0.8v-6.1h-0.4V219h0.8v-1.3h0.8v-5.7h-0.4V210h2.5v2.1h-0.4v5.7h0.8v0.8h13.8v-8.2h-0.4v-2.6h0.4v-14.7
						h-0.8v-1.3h-0.4v-2.1h-0.4V189h0.4l6.9-31.5v-4.4h-0.4c-0.4,0-0.4,0-0.4-0.4c0,0,0-0.1,0-0.1c0-0.2,0.2-0.4,0.4-0.3h0.4v-0.8
						c0,0,0-0.1,0-0.1c0-0.2,0.2-0.3,0.4-0.3c0,0,0.1,0,0.1,0c0.2,0,0.3,0.2,0.3,0.4v0.8h0.4c0.4,0,0.4,0,0.4,0.4c0,0,0,0.1,0,0.1
						c0,0.2-0.2,0.3-0.4,0.3h-0.4v4.4l6.9,31.5h0.4v0.9h-0.4v2.1h-0.4v1.3h-0.8v11.3l14.3-15.1l8.2,8.6h11.3v-3h-0.4v-2.1h0.4v-2.1
						h7.8v1.3h0.4v2.1h-0.4v3h16.4v-25.4h0.8v-9.9h-0.4v-2.1h0.4v-1.3h4.4v1.3h0.4v2.1h-0.4v9.9h2.5l4-13.8h0.4v-1.1h0.3v-0.4h-0.3
						V151h0.8v4h2.1v-2.1c0,0,0-0.1,0-0.1c0-0.2,0.2-0.3,0.4-0.3c0,0,0.1,0,0.1,0c0.2,0,0.3,0.2,0.3,0.4v2.1h2.5v-2.1
						c0,0,0-0.1,0-0.1c0-0.2,0.2-0.3,0.4-0.3c0,0,0.1,0,0.1,0c0.2,0,0.3,0.2,0.3,0.4v2.1h2.5v-2.1c0,0,0-0.1,0-0.1
						c0-0.2,0.2-0.3,0.4-0.3c0,0,0.1,0,0.1,0c0.2,0,0.3,0.2,0.3,0.4v2.1h2.1v-4h0.8v6.9h0.4l5.2,18.5h1.3h4.4h4.4h4.4h4.4h4.4h4.4
						h4.4h4.4h4.4h4.4h4.4h2.1v-2.1h-0.4v-2.1h0.4v-1.3h4.4v1.3h0.4v2.1h-0.4v2.1h3.4h4.4h1.7v-9.1l1.3-0.8v-35h-1.3v-2.5h-0.4v-7.8
						h-0.8v-3h1.7l3.4-5.2h6.1v5.2h21.2l6.1-22.5v-6.5h0.8v0.8h0.8v1.3h-0.8v3.9l4.8,17.7h2.5l3.4,5.2h1.7v3h-0.8v7.8h-0.4v2.5h-1.3
						v35l0.8,0.9v9h1.7h4.4h3.4v-2.1h-0.4v-2.1h0.4v-1.3h4.4v1.3h0.4v2.1h-0.4v2.1h2.1h4.4h4.4h4.4h4.4h4.4h4.4h4.4h4.4h4.4h4.4h4.4
						h1.3l5.2-18.5h0.4V151h0.8v4h2.1v-2.1c0,0,0-0.1,0-0.1c0-0.2,0.2-0.4,0.4-0.3c0,0,0.1,0,0.1,0c0.2,0,0.3,0.2,0.3,0.4v2.1h2.5
						v-2.1c0,0,0-0.1,0-0.1c0-0.2,0.2-0.4,0.4-0.3c0,0,0.1,0,0.1,0c0.2,0,0.3,0.2,0.3,0.4V154.9z M1512.6,156.7v-0.4h-2.5v0.4
						H1512.6z"/>
					<rect x="1040.1" y="247.9" class="st8" width="54.3" height="0.7"/>
					<polygon class="st5" points="1053.8,136.7 1053.8,129.9 1066.4,129.9 1066.4,125.9 1072.4,125.9 1072.4,121.6 1075.4,121.6 
						1075.4,126 1080.2,126 1080.2,136.7 1094.5,136.7 1094.5,247.9 1040.1,247.9 1040.1,136.7 					"/>
					<path class="st8" d="M1018.8,247.9v0.7h-51.2c0.1-0.3,0.4-0.3,0.4-0.7H1018.8z"/>
					<path class="st5" d="M1018.8,136.3v111.6H968c3.4-3,4.4-8.2,3-13c-1.1-3.7-3.4-7.3-6.5-9.9v-88.7h13.8V126h4.8v-4.4h3v4.4h6.5
						v4h12.6v6.4h0l0,0.1v-0.1H1018.8z"/>
					<polygon class="st5" points="1005.1,136.3 1005.1,136.4 1005.1,136.3 					"/>
					<path class="st9" d="M970.9,234.9c1.4,4.8,0.4,10-3,13h-3.5V225C967.5,227.5,969.8,231.1,970.9,234.9z"/>
					<path class="st8" d="M964.4,247.9h3.5c0,0.4-0.3,0.4-0.4,0.7h-3.1V247.9z"/>
					<path class="st8" d="M967.6,248.6c0,0,0,0.1,0,0.1h-25.1v-0.8h22v0.7H967.6z"/>
					<path class="st5" d="M964.4,225v22.9h-22v-27.3c3.9-0.5,7.8-0.6,11.7,0.8h0.8C958.6,221.4,961.8,222.8,964.4,225z"/>
					<rect x="892.7" y="247.9" class="st8" width="49.7" height="0.9"/>
					<path class="st5" d="M942.4,220.6v27.3h-49.7v-26.6c0.7-0.4,1.5-0.8,2.3-1.1c0.3-1.8,1.4-3.4,3-4.4c4.3-2.5,9.6-2.5,13.8,0h1.7
						c3.4,0.7,6.4,2.7,8.2,5.7c0.4,0,0.9-0.4,1.3-0.4c2.7-0.8,5.5-0.8,8.2,0c1.9,0.4,3.5,1.7,4.4,3.4c0.9-1.7,2.5-3,4.4-3.4
						C940.7,220.9,941.6,220.7,942.4,220.6z"/>
					<path class="st5" d="M942.4,85v135.6c-0.8,0.1-1.7,0.3-2.5,0.4c-1.9,0.4-3.5,1.7-4.4,3.4c-0.9-1.7-2.5-2.9-4.4-3.4
						c-2.7-0.8-5.5-0.8-8.2,0c-0.4,0-0.8,0.4-1.3,0.4c-1.8-2.9-4.8-5-8.2-5.7h-1.7c-4.3-2.5-9.6-2.5-13.8,0c-1.6,1-2.7,2.6-3,4.4
						c-0.8,0.3-1.5,0.7-2.3,1.1V85h12.6V70.3h7.3V85h5.6V70.3h7.3V85H942.4z"/>
					<path class="st5" d="M847.5,229.6c0.3-3.8,2.7-7,6.1-8.6c2.8-1.4,5.9-2,9-1.7c0.4-3.5,3.5-5.6,6.9-6.1c3.8,0,8.2,1.8,9.9,5.2
						c1,1.9,1.6,3.9,1.7,6.1c1.6,0.3,3.1,0.9,4.4,1.7l2.5,2.5c-0.2-1.4,0.1-2.8,0.8-4c0.9-0.8,1.3-1.7,2.1-2.5
						c0.6-0.4,1.1-0.7,1.7-1v26.6h-51.1c-0.3-0.5-0.5-1.1-0.6-1.7c-1.9-3.7-1.7-8.1,0.4-11.7C842.9,232.2,845,230.5,847.5,229.6z"/>
					<path class="st8" d="M841.7,247.9h51.1v0.8h-50.4C842.1,248.4,841.8,248.2,841.7,247.9z"/>
					<polygon class="st5" points="834,85 834,247.9 783.9,247.9 783.9,85 796.4,85 796.4,70.3 804.2,70.3 804.2,85 809.4,85 
						809.4,70.3 817.2,70.3 817.2,85 					"/>
					<rect x="783.9" y="247.9" class="st8" width="50.1" height="0.9"/>
					<path class="st9" d="M2365.7,296.7h-2414v-48.9h11.9c0,0.3,0.2,0.6,0.3,0.8h-0.1v1.3H82.8c0.4-0.7,0.7-1.4,0.9-2.1h10.3v1.1
						h337.5v-1.1h51.9v0.6h32.8v-0.6h28.5c0.1,0.2,0.3,0.5,0.5,0.7h122.8c0,0.1,0.1,0.1,0.2,0.1l0.4,0.4h2.7h0.4h92.8
						c0-0.4,0.3-0.7,1-1.3h18.3v0.8H834v-0.8h7.7c0.2,0.3,0.4,0.6,0.7,0.8h50.4h49.7h25.1c0-0.1,0-0.1,0-0.1h51.2v-0.7h21.3v0.7
						h54.3v-0.7h18.5v0.8h430.7c0,0.1,0.1,0.3,0.2,0.4h-0.1v1.3h119.1c0.3-0.4,0.5-0.8,0.6-1.3h9.4v-1.3h22.2v0.7l63,0.1v-0.8h30.8
						v0.8h257.2c0.1,0.2,0.2,0.3,0.3,0.4H2162l0.3-0.3l132.7-0.1l0.5-0.8h70.3V296.7z"/>
					<path class="st8" d="M672.1,247.9h93.4c-0.7,0.5-1,0.9-1,1.3h-92.8C672,248.7,672.1,248.3,672.1,247.9z"/>
					<path class="st5" d="M736.4,226.1c1.3-2.6,4.4-4,7.3-4c2.7,0.1,5,2.1,5.2,4.8c2.4,0,4.7,0.4,6.9,1.3c3,1.3,4.4,3.9,4.8,6.9
						c1.8,0.8,3.5,1.9,4.8,3.4c1.7,2.7,1.8,6.2,0.4,9c-0.1,0.1-0.3,0.2-0.4,0.3h-93.4c0.1-0.4,0.1-0.8,0.1-1.3c0-3.1-1.2-6-3.4-8.2
						c-0.2-1.1-0.5-2.1-1-3.1c2.3-3.8,6.2-6.8,10.9-6.8h0.9c3.4-1.3,7.2-1.4,10.7-0.4c1.4,0.3,2.7,1.3,3.4,2.5
						c0.7-1.2,1.7-2.1,3-2.5c2.1-0.4,4.4-0.8,6.5,0c0.3,0,0.6,0.2,0.8,0.4c1.3-2.3,3.5-3.8,6.1-4.4h1.3c3.1-2,7.1-2,10.3,0
						c1.2,0.7,2.1,1.7,2.5,3c1.1,0.3,2.2,0.9,3,1.7c0.7,0.6,1.3,1.3,1.7,2.1c0.5,0.9,0.8,1.9,0.8,3c0.5-0.8,1.2-1.4,2.1-1.7
						c0.9-0.8,2.1-1.3,3.4-1.3C735.2,229.2,735.6,227.6,736.4,226.1z"/>
					<path class="st9" d="M668.8,238.4c2.2,2.2,3.4,5.1,3.4,8.2c0,0.4,0,0.9-0.1,1.3h-4.7c-1.9-2.2-2.4-5.7-1.3-9
						c0.4-1.2,1-2.4,1.7-3.6C668.3,236.2,668.6,237.3,668.8,238.4z"/>
					<path class="st8" d="M671.4,248.6v0.6h-2.7l-0.4-0.4c-0.1-0.1-0.1-0.1-0.2-0.1H671.4z"/>
					<path class="st8" d="M672.1,247.9c-0.1,0.4-0.2,0.9-0.4,1.3h-0.4v-0.6h-3.3c-0.2-0.2-0.5-0.4-0.7-0.7H672.1z"/>
					<path class="st8" d="M668.1,248.6H545.3c-0.2-0.2-0.3-0.5-0.5-0.7h122.6C667.6,248.1,667.9,248.3,668.1,248.6z"/>
					<path class="st5" d="M667.4,247.9H544.8c-2-3.4-1.1-7.3,0.5-11c0.5-1.1,1.4-2,2.5-2.6c-1-4.6,0.7-9.3,4.4-12.1
						c3.5-2.1,7.8-2.1,11.3,0l0.8,0.9c3.5-1.3,7.9-2.1,11.3,0c3.5,2.5,4.8,5.5,5.6,9.5c1.4,0.9,2.7,1.3,4,2.1
						c2.7-3.1,6.9-4.4,11.3-4.4c0.8-3.8,3-7.8,7.3-9c3.9-1.3,7.8,0,11.7,1.7c6.5-2.5,14.3,0.8,19,6.1c0.9-1.8,2.2-3.3,4-4.4
						c2.2-1,4.6-1.3,6.9-0.8c1.8,0.7,3.4,1.7,4.8,3c6.7-1.4,14.6,2.5,17.5,8.6c-0.7,1.1-1.3,2.3-1.7,3.6
						C665,242.2,665.5,245.6,667.4,247.9z"/>
					<rect x="483.6" y="247.9" class="st8" width="32.8" height="0.6"/>
					<path class="st5" d="M510.3,224.5c0.1-0.1,0.3-0.2,0.3-0.3h5.7v23.6h-32.8v-23.6h4.8c-0.9-0.4-0.9-0.4-0.9-1.3
						c0.4-2.1,1.3-3,3-3.4c1.7-2.1,1.7-3.9,1.7-6.1c0-2.3,0.4-4,0.4-5.7c0.4-2,0.5-4,0.4-6.1c0-1.4-0.4-3.1,0-4.4
						c-0.4-0.3-0.8-0.4-1.3-0.4c-0.8-0.4-1.3-0.8-1.3-1.7c0-1.4,0.8-2.7,0.8-4.4c-0.6-1.3-1.5-2.4-2.5-3.4c-0.4-0.4-1.3-1.3-0.9-2.1
						c0.9-2.7,4-3.1,5.6-5.2c2.1-0.1,4.1-0.6,6.1-1.3c0-0.4-0.9-0.9-0.9-1.7c-0.3-0.7-0.1-1.6,0.4-2.1c0.6-0.6,1.3-0.9,2.1-0.8
						c1.5,0.1,2.6,1.5,2.5,3c0,1.3,0.4,3-0.9,3.4c0.9,0.8,2.1,0.8,3,1.3c0.4,0.4,0.9,0.4,0.9,0.9c0.8,1.8,2.5,2.7,2.5,4.8
						c-0.3,1-0.7,2-1.3,3l-1.3,2.5c0,0.8-0.4,1.7-1.3,1.7c-0.4,1.7,0.4,3.9,0.4,5.6c0.4,2.1,0,4.8,0.4,7.3c0.6,2,0.9,4,0.9,6.1
						c0,0.9-0.1,1.8-0.1,2.8c0,1,0.1,2,0.5,2.8c0,0,0,0.1,0,0.1c0,0.2,0.2,0.4,0.4,0.3c0.4,0.4,0.8,0,1.3,0.4
						c0.8,0.4,1.3,1.2,1.3,2.1c0,0.7,0.3,1.4-0.1,1.9h-0.3V224.5z"/>
					<path class="st8" d="M510.3,224.3h0.3c-0.1,0.1-0.2,0.2-0.3,0.3V224.3z"/>
					<rect x="94.1" y="247.9" class="st8" width="337.5" height="1.1"/>
					<polygon class="st5" points="431.7,241.2 431.7,247.9 94.1,247.9 94.1,241.6 87.2,241.6 87.2,233 92,233 102.7,213.1 
						146.4,206.6 148.9,216.5 151.4,210.8 234.7,206.5 234.7,188 246.4,188 246.4,183.2 259.4,183.2 259.4,188 273.7,188 
						273.7,183.2 286.7,183.2 286.7,188 300.8,188 300.8,183.2 313.8,183.2 313.8,188 325.5,188 325.5,205.2 393.7,208.2 
						398.5,221.2 401,206.9 415.7,208.2 417.8,232.7 429.5,232.7 429.5,240.9 429.5,241.2 					"/>
					<path class="st9" d="M82.8,238.7c1.4,2.8,1.9,6.1,0.9,9.2H-36.4c-0.1-0.4-0.2-0.8-0.2-1.3c0.1-2.9,1.1-5.6,3-7.8
						c1.3-7.3,9.9-12.6,17.2-10.7c1.3-1.3,3-2.2,4.8-2.6c2.2-0.4,4.5-0.1,6.5,0.9c1.6,0.8,2.8,2.3,3.4,4c4.8-4.8,11.7-8.2,17.6-5.7
						c3.5-1.8,7.4-2.4,11.3-1.7c4.4,1.3,6.1,4.8,6.9,8.6c3.9,0,8.2,0.8,10.7,4c1.3-0.7,2.6-1.3,3.9-1.7c0.9-3.4,2.1-6.5,5.2-8.6
						c3-2.1,7.3-1.3,10.7,0c0.4-0.4,0.4-0.4,0.8-0.4c3.3-2.1,7.5-2.1,10.7,0c4,3,4.8,6.9,4,11.7C81.2,237.1,82.1,237.8,82.8,238.7z"
						/>
					<path class="st8" d="M-36.2,248.7c-0.1-0.3-0.2-0.6-0.3-0.8H83.8c-0.2,0.7-0.5,1.4-0.9,2.1H-36.3v-1.3H-36.2z"/>
				</g>
				<g>
				</g>
			</g>
		</g>
	</g>
	<g id="Group_5695_1_" transform="translate(22.373)">
		<path id="Path_30725_1_" class="st10" d="M808-240c0-2,1.6-3.6,3.6-3.6c2,0,3.6,1.6,3.6,3.6c0,2-1.6,3.6-3.6,3.6
			C809.6-236.4,808-238,808-240z"/>
		<path id="Path_30726_1_" class="st10" d="M2047.5,86.4c0-2,1.6-3.6,3.6-3.6c2,0,3.6,1.6,3.6,3.6c0,2-1.6,3.6-3.6,3.6
			C2049.2,90,2047.5,88.4,2047.5,86.4C2047.5,86.4,2047.5,86.4,2047.5,86.4z"/>
		<path id="Path_30727_1_" class="st10" d="M1406.2-81.8c0-3.2,2.6-5.7,5.7-5.7c3.2,0,5.7,2.6,5.7,5.7c0,3.2-2.6,5.7-5.7,5.7
			C1408.8-76.1,1406.3-78.6,1406.2-81.8z"/>
		<path id="Path_30728_1_" class="st10" d="M2241.7-232.3c0-1.5,1.3-2.8,2.8-2.8c1.5,0,2.8,1.3,2.8,2.8c0,1.5-1.3,2.8-2.8,2.8
			C2242.9-229.5,2241.7-230.8,2241.7-232.3z"/>
		<path id="Path_30729_1_" class="st10" d="M1638.8-9.7c0-2.1,1.7-3.8,3.8-3.8c2.1,0,3.8,1.7,3.8,3.8c0,2.1-1.7,3.8-3.8,3.8
			C1640.5-5.9,1638.8-7.6,1638.8-9.7z"/>
		<path id="Path_30730_1_" class="st10" d="M540.6-138.7c0-2.9,2.3-5.2,5.2-5.2c2.9,0,5.2,2.3,5.2,5.2c0,2.9-2.3,5.2-5.2,5.2
			C542.9-133.5,540.6-135.8,540.6-138.7z"/>
		<path id="Path_30731_1_" class="st10" d="M2011.2-163.4c0-3.5,2.9-6.4,6.4-6.4c3.5,0,6.4,2.9,6.4,6.4c0,3.5-2.9,6.4-6.4,6.4
			C2014.1-157,2011.2-159.8,2011.2-163.4C2011.2-163.4,2011.2-163.4,2011.2-163.4z"/>
		<path id="Path_30732_1_" class="st10" d="M1910.9,17.9c0-1.7,1.4-3.1,3.1-3.1c1.7,0,3.1,1.4,3.1,3.1c0,1.7-1.4,3.1-3.1,3.1
			C1912.3,20.9,1910.9,19.6,1910.9,17.9z"/>
		<path id="Path_30733_1_" class="st10" d="M657.7,12.8c0-1.8,1.4-3.2,3.2-3.2c1.8,0,3.2,1.4,3.2,3.2c0,1.8-1.4,3.2-3.2,3.2
			c-1.7,0-3.2-1.4-3.2-3.1C657.6,12.9,657.6,12.9,657.7,12.8z"/>
		<path id="Path_30734_1_" class="st10" d="M204.2-20.3c0-2.8,2.3-5.2,5.1-5.2c0,0,0,0,0,0c2.8,0,5,2.3,5,5.1c0,0,0,0.1,0,0.1
			c0,2.8-2.2,5.1-5,5.2C206.6-15.1,204.3-17.4,204.2-20.3z"/>
		<path id="Path_30735_1_" class="st10" d="M2234.6,62.3c0-3.9,3.2-7.1,7.1-7.1c3.9,0,7.1,3.2,7.1,7.1c0,3.9-3.2,7.1-7.1,7.1
			C2237.8,69.4,2234.6,66.2,2234.6,62.3z"/>
		<path id="Path_30736_1_" class="st10" d="M623.6,113.8c0-2.6,2.1-4.7,4.8-4.7c2.6,0,4.7,2.1,4.7,4.8c0,2.6-2.1,4.7-4.7,4.7
			C625.7,118.5,623.6,116.4,623.6,113.8C623.6,113.8,623.6,113.8,623.6,113.8z"/>
		<path id="Path_30737_1_" class="st10" d="M257.3,118.5c0-1.5,1.2-2.7,2.7-2.7c1.5,0,2.7,1.2,2.7,2.7c0,1.5-1.2,2.7-2.7,2.7
			C258.5,121.2,257.3,120,257.3,118.5C257.3,118.5,257.3,118.5,257.3,118.5z"/>
		<path id="Path_30738_1_" class="st10" d="M1769.8-216c0-1.9,1.6-3.5,3.5-3.5c1.9,0,3.5,1.6,3.5,3.5c0,1.9-1.6,3.5-3.5,3.5
			C1771.4-212.4,1769.8-214,1769.8-216C1769.8-215.9,1769.8-215.9,1769.8-216z"/>
		<path id="Path_30739_1_" class="st10" d="M1538.7-98.4c0-1.9,1.6-3.5,3.5-3.5c1.9,0,3.5,1.6,3.5,3.5c0,1.9-1.6,3.5-3.5,3.5
			C1540.2-94.9,1538.7-96.5,1538.7-98.4z"/>
		<path id="Path_30740_1_" class="st10" d="M2138.3-83.9c0-2.6,2.1-4.7,4.8-4.7c2.6,0,4.7,2.1,4.7,4.8c0,2.6-2.1,4.7-4.7,4.7
			C2140.5-79.2,2138.3-81.3,2138.3-83.9z"/>
		<path id="Path_30741_1_" class="st10" d="M585.7-328c-0.1-1.2,0.8-2.2,2-2.2c1.2-0.1,2.2,0.8,2.2,2c0,0.1,0,0.2,0,0.3
			c0,1.1-1,2-2.1,2c-1,0.2-1.9-0.5-2.1-1.5C585.7-327.7,585.7-327.9,585.7-328z"/>
		<path id="Path_30742_1_" class="st10" d="M1151.3-71.2c0-1.3,1.1-2.4,2.4-2.4c1.3,0,2.4,1.1,2.4,2.4c0,1.3-1.1,2.4-2.4,2.4
			c-1.3,0.1-2.3-0.9-2.4-2.2C1151.3-71,1151.3-71.1,1151.3-71.2z"/>
		<ellipse id="Ellipse_13_1_" class="st10" cx="1298.9" cy="-110.3" rx="2.7" ry="2.7"/>
		<path id="Path_30743_1_" class="st10" d="M2162.8-57.6c0-0.9,0.8-1.7,1.7-1.7c0.9,0,1.7,0.8,1.7,1.7c0,0.9-0.8,1.7-1.7,1.7
			C2163.5-56,2162.8-56.7,2162.8-57.6z"/>
		<path id="Path_30744_1_" class="st10" d="M1478,17.9c0-1.7,1.4-3.1,3.1-3.1c1.7,0,3.1,1.4,3.1,3.1c0,1.7-1.4,3.1-3.1,3.1
			c-1.7,0-3-1.3-3.1-3C1478,18,1478,17.9,1478,17.9z"/>
		<path id="Path_30745_1_" class="st10" d="M1776.5,53c0-1.8,1.4-3.2,3.2-3.2c1.8,0,3.2,1.4,3.2,3.2c0,1.8-1.4,3.2-3.2,3.2
			c-1.7,0-3.2-1.4-3.2-3.1C1776.5,53,1776.5,53,1776.5,53z"/>
		<path id="Path_30746_1_" class="st10" d="M1906.3-73.8c0-1.5,1.2-2.7,2.7-2.7s2.7,1.2,2.7,2.7c0,1.5-1.2,2.7-2.7,2.7
			C1907.5-71.2,1906.3-72.3,1906.3-73.8C1906.3-73.8,1906.3-73.8,1906.3-73.8z"/>
		<path id="Path_30747_1_" class="st10" d="M59.7-295.5c0-2.1,1.7-3.8,3.8-3.8c2.1,0,3.8,1.7,3.8,3.8c0,2.1-1.7,3.8-3.8,3.8
			C61.4-291.7,59.7-293.4,59.7-295.5C59.7-295.5,59.7-295.5,59.7-295.5z"/>
		<path id="Path_30748_1_" class="st10" d="M769.3,121.4c0-2.2,1.7-3.9,3.9-3.9c0,0,0,0,0,0c2.2,0,3.9,1.8,3.9,4
			c0,2.1-1.7,3.8-3.9,3.9C771,125.4,769.3,123.6,769.3,121.4C769.3,121.5,769.3,121.5,769.3,121.4z"/>
		<path id="Path_30749_1_" class="st10" d="M1273.9,37.3c0-1.5,1.2-2.7,2.7-2.7c1.5,0,2.7,1.2,2.7,2.7c0,1.5-1.2,2.7-2.7,2.7
			c-1.4,0.1-2.6-0.9-2.7-2.3C1273.9,37.5,1273.9,37.4,1273.9,37.3z"/>
		<path id="Path_30750_1_" class="st10" d="M671.9-73.8c0-1.6,1.3-2.9,2.9-2.9s2.9,1.3,2.9,2.9c0,1.6-1.3,2.9-2.9,2.9
			C673.2-70.9,672-72.2,671.9-73.8z"/>
		<path id="Path_30751_1_" class="st10" d="M2162.8-251.9c0-0.8,0.6-1.4,1.4-1.4l0,0c0.7,0,1.4,0.5,1.4,1.2c0,0.1,0,0.1,0,0.2
			c0.1,0.8-0.5,1.4-1.3,1.5c-0.8,0.1-1.4-0.5-1.5-1.3C2162.8-251.8,2162.8-251.8,2162.8-251.9L2162.8-251.9z"/>
		<path id="Path_30752_1_" class="st10" d="M1028.8-71.2c0-2.1,1.7-3.8,3.8-3.8c2.1,0,3.8,1.7,3.8,3.8c0,2.1-1.7,3.8-3.8,3.8
			C1030.5-67.4,1028.8-69,1028.8-71.2C1028.8-71.1,1028.8-71.1,1028.8-71.2z"/>
		<path id="Path_30753_1_" class="st10" d="M1440.2-15.2c0-1.4,1.1-2.5,2.5-2.5c1.4,0,2.5,1.1,2.5,2.5c0,1.4-1.1,2.5-2.5,2.5
			C1441.3-12.7,1440.2-13.8,1440.2-15.2C1440.2-15.2,1440.2-15.2,1440.2-15.2z"/>
		<path id="Path_30754_1_" class="st10" d="M172.9-8.8c0-0.6,0.5-1.1,1.1-1.1s1.1,0.5,1.1,1.1c0,0.6-0.5,1.1-1.1,1.1
			C173.5-7.7,173-8.2,172.9-8.8z"/>
		<path id="Path_30755_1_" class="st10" d="M-40.8,46.4c0-2.2,1.7-4.1,4-4.1c2.2,0,4.1,1.7,4.1,4c0,0.1,0,0.1,0,0.2
			c0,2.3-1.8,4.1-4.1,4.2C-39,50.5-40.7,48.6-40.8,46.4z"/>
		<path id="Path_30756_1_" class="st10" d="M2234.6-134.9c0-2.1,1.7-3.8,3.8-3.8c2.1,0,3.8,1.7,3.8,3.8c0,2.1-1.7,3.8-3.8,3.8
			C2236.3-131.1,2234.6-132.8,2234.6-134.9C2234.6-134.9,2234.6-134.9,2234.6-134.9z"/>
		<path id="Path_30757_1_" class="st10" d="M1004.9-253.8c0-0.8,0.6-1.4,1.4-1.4s1.4,0.6,1.4,1.4s-0.6,1.4-1.4,1.4
			C1005.6-252.5,1005-253.1,1004.9-253.8z"/>
		<path id="Path_30758_1_" class="st10" d="M450.2,13.7c0-1.8,1.4-3.2,3.2-3.2c1.8,0,3.2,1.4,3.2,3.2c0,1.8-1.4,3.2-3.2,3.2
			c-1.7,0-3.2-1.4-3.2-3.1C450.2,13.8,450.2,13.7,450.2,13.7z"/>
		<path id="Path_30759_1_" class="st10" d="M1556.5-268.7c0-0.8,0.7-1.5,1.5-1.5s1.5,0.7,1.5,1.5c0,0.8-0.7,1.5-1.5,1.5l0,0
			C1557.2-267.1,1556.5-267.8,1556.5-268.7z"/>
		<path id="Path_30760_1_" class="st10" d="M781.4-81.9c0-1.2,1-2.2,2.2-2.2c1.2,0,2.2,1,2.2,2.2c0,1.2-1,2.2-2.2,2.2
			c-1.2,0.1-2.2-0.8-2.2-2C781.4-81.8,781.4-81.8,781.4-81.9z"/>
		<path id="Path_30761_1_" class="st10" d="M193.6-154.7c0-1.2,1-2.2,2.2-2.2c1.2,0,2.2,1,2.2,2.2c0,1.2-1,2.2-2.2,2.2
			C194.6-152.5,193.6-153.5,193.6-154.7C193.6-154.7,193.6-154.7,193.6-154.7z"/>
		<path id="Path_30762_1_" class="st10" d="M1735.2-203c0-1.2,1-2.2,2.2-2.2c1.2,0,2.2,1,2.2,2.2c0,1.2-1,2.2-2.2,2.2
			C1736.2-200.8,1735.2-201.7,1735.2-203z"/>
		<path id="Path_30763_1_" class="st10" d="M558.1-101.9c0-1.2,1-2.2,2.2-2.2c1.2,0,2.2,1,2.2,2.2c0,1.2-1,2.2-2.2,2.2
			C559.1-99.7,558.1-100.7,558.1-101.9z"/>
		<path id="Path_30764_1_" class="st10" d="M1269.9-295.5c0-1.9,1.5-3.4,3.4-3.3c1.9,0,3.4,1.5,3.3,3.4c0,1.9-1.5,3.3-3.4,3.4
			c-1.7,0.1-3.2-1.2-3.4-2.9C1269.9-295.2,1269.9-295.3,1269.9-295.5z"/>
		<path id="Path_30765_1_" class="st10" d="M2295.1-309.2c0-1.9,1.5-3.4,3.4-3.4s3.4,1.5,3.4,3.4c0,1.9-1.5,3.4-3.4,3.4
			C2296.6-305.9,2295.1-307.3,2295.1-309.2z"/>
		<path id="Path_30766_1_" class="st10" d="M109,81.2c0-2,1.6-3.6,3.6-3.6c2,0,3.6,1.6,3.6,3.6c0,2-1.6,3.6-3.6,3.6
			C110.6,84.8,109,83.2,109,81.2C109,81.2,109,81.2,109,81.2z"/>
		<path id="Path_30767_1_" class="st10" d="M2053.3-351.4c0-2.1,1.7-3.8,3.8-3.8s3.8,1.7,3.8,3.8c0,2.1-1.7,3.8-3.8,3.8
			C2055-347.7,2053.3-349.3,2053.3-351.4z"/>
		<path id="Path_30768_1_" class="st10" d="M301.7-39.4c0-0.8,0.7-1.5,1.5-1.5c0.8,0,1.5,0.7,1.5,1.5s-0.7,1.5-1.5,1.5l0,0
			c-0.8,0.1-1.5-0.5-1.5-1.2C301.7-39.2,301.7-39.3,301.7-39.4z"/>
		<path id="Path_30769_1_" class="st10" d="M-48.3-125.8c0-1.5,1.3-2.8,2.8-2.8c1.5,0,2.8,1.3,2.8,2.8c0,1.5-1.3,2.8-2.8,2.8
			C-47.1-123-48.3-124.3-48.3-125.8z"/>
		<path id="Path_30770_1_" class="st10" d="M-30.6,121.2c0-0.7,0.6-1.3,1.3-1.3s1.3,0.6,1.3,1.3c0,0.7-0.6,1.3-1.3,1.3
			C-30,122.6-30.6,122-30.6,121.2z"/>
	</g>
	<rect id="Rectangle_4529_1_" x="-48.3" y="318.8" class="st5" width="2388.6" height="429.1"/>
</g>
</svg>
